<?xml version="1.0" encoding="utf-8"?>
<!-- Generator: Adobe Illustrator 18.0.0, SVG Export Plug-In . SVG Version: 6.00 Build 0)  -->
<!DOCTYPE svg PUBLIC "-//W3C//DTD SVG 1.1//EN" "http://www.w3.org/Graphics/SVG/1.1/DTD/svg11.dtd">
<svg version="1.1" id="Слой_1" xmlns="http://www.w3.org/2000/svg" xmlns:xlink="http://www.w3.org/1999/xlink" x="0px" y="0px"
	 viewBox="0 0 20 20" enable-background="new 0 0 20 20" xml:space="preserve">
<g>
	<g>
		<path fill="#3573ff" d="M10,13.4c-0.6-0.7-0.8-1.4-0.5-2.3c-0.4,0-0.8,0-1.1,0c-1.5-0.2-2.5-0.9-3-2.4C5,7.2,5.5,5.9,6.7,4.9
			c0.7-0.6,1.6-1,2.5-1.1c1.8-0.1,3.6,0,5.4,0c-0.6,0.5-1.4,0.8-2.3,0.8c0.2,0.2,0.4,0.3,0.5,0.5C14,6.4,14,8.4,12.7,9.7
			c-0.3,0.3-0.7,0.6-1,0.9c-0.6,0.6-0.6,1.2,0.1,1.8c0.5,0.4,1,0.8,1.5,1.3c1.5,1.5,1.4,3.6-0.2,5c-1.4,1.2-3,1.5-4.8,1.4
			c-0.8-0.1-1.6-0.2-2.3-0.5c-1-0.4-1.7-1.1-1.8-2.2c-0.1-1.2,0.5-2.1,1.4-2.7c1.1-0.7,2.3-0.9,3.6-1.1C9.4,13.4,9.6,13.4,10,13.4z
			 M9.7,19.3c0.7-0.2,1.4-0.2,1.9-0.5c1.5-0.6,1.8-2.3,0.7-3.5c-0.4-0.4-1-0.8-1.5-1.2c-0.1-0.1-0.3-0.2-0.5-0.1
			c-0.9,0.1-1.9,0.2-2.8,0.5c-0.9,0.3-1.4,1-1.5,1.9c0,1,0.5,1.7,1.3,2.1C8.2,18.9,9,19,9.7,19.3z M11.8,8.1
			c-0.1-1.1-0.4-2.3-1.4-3.2c-0.6-0.5-1.3-0.7-2-0.4C7.7,4.9,7.3,5.4,7.2,6.2C7.1,7.4,7.3,8.6,8.1,9.6c0.6,0.8,1.5,1.2,2.4,0.9
			C11.4,10.1,11.9,9.5,11.8,8.1z"/>
	</g>
</g>
</svg>
