<?xml version="1.0" encoding="utf-8"?>
<!-- Generator: Adobe Illustrator 18.0.0, SVG Export Plug-In . SVG Version: 6.00 Build 0)  -->
<!DOCTYPE svg PUBLIC "-//W3C//DTD SVG 1.1//EN" "http://www.w3.org/Graphics/SVG/1.1/DTD/svg11.dtd">
<svg version="1.1" id="Слой_1" xmlns="http://www.w3.org/2000/svg" xmlns:xlink="http://www.w3.org/1999/xlink" x="0px" y="0px"
	 viewBox="0 0 20 20" enable-background="new 0 0 20 20" xml:space="preserve">
<g>
	<g>
		<path fill="#4678D9" d="M9.5,20c-0.3-0.1-0.7-0.1-1-0.2c-2.9-0.6-5.3-2.9-5.9-5.8c-0.1-0.6-0.2-1.2-0.2-1.8
			c0.1-0.5,0.5-0.9,1.1-0.9c0.5,0,1,0.4,1,0.9c0.1,0.5,0.1,1,0.2,1.5c0.6,2.1,2,3.4,4.1,4c0-2.7,0-5.3,0-8c-0.1,0-0.2,0-0.2,0
			c-1.4,0-2.7,0-4.1,0c-0.6,0-1-0.4-1.1-1c-0.1-0.5,0.3-1,0.8-1.2c0.1,0,0.2,0,0.3,0c1.3,0,2.7,0,4,0c0.1,0,0.1,0,0.2,0
			c0-0.4,0-0.8,0-1.2c0,0-0.1-0.1-0.1-0.1C7.8,5.8,7.1,5.1,6.9,4c-0.5-1.7,0.7-3.6,2.4-4C9.4,0.1,9.6,0,9.7,0c0.2,0,0.4,0,0.6,0
			c0.1,0,0.3,0.1,0.4,0.1c1.7,0.4,2.8,2.1,2.5,3.8c-0.2,1.1-0.9,1.9-2,2.4c-0.1,0-0.1,0.1-0.1,0.1c0,0.4,0,0.8,0,1.2
			c0.1,0,0.1,0,0.2,0c1.3,0,2.6,0,4,0c0.1,0,0.3,0,0.4,0c0.5,0.1,0.9,0.6,0.8,1.2c-0.1,0.6-0.5,1-1.1,1c-1.4,0-2.7,0-4.1,0
			c-0.1,0-0.2,0-0.2,0c0,2.7,0,5.3,0,8c1.8-0.3,3.3-1.7,4-3.4c0.2-0.6,0.3-1.3,0.3-1.9c0-0.6,0.5-1,1.2-1c0.5,0,1,0.5,1,1.1
			c0,1.2-0.3,2.4-0.9,3.5c-1.1,2.1-2.9,3.4-5.2,3.9c-0.3,0.1-0.7,0.1-1,0.2C10.2,20,9.8,20,9.5,20z M11.1,3.2c0-0.6-0.5-1.1-1.1-1.1
			c-0.6,0-1.1,0.5-1.1,1.1c0,0.6,0.5,1.1,1.1,1.1C10.6,4.3,11.1,3.8,11.1,3.2z"/>
	</g>
</g>
</svg>
