<?xml version="1.0" encoding="utf-8"?>
<!-- Generator: Adobe Illustrator 18.0.0, SVG Export Plug-In . SVG Version: 6.00 Build 0)  -->
<!DOCTYPE svg PUBLIC "-//W3C//DTD SVG 1.1//EN" "http://www.w3.org/Graphics/SVG/1.1/DTD/svg11.dtd">
<svg version="1.1" id="Слой_1" xmlns="http://www.w3.org/2000/svg" xmlns:xlink="http://www.w3.org/1999/xlink" x="0px" y="0px"
	 viewBox="0 0 20 20" enable-background="new 0 0 20 20" xml:space="preserve">
<g>
	<g>
		<path fill="#3573ff" d="M0,16.3c2.2,0.2,4.2-0.3,6-1.7c-1.9-0.2-3.1-1.1-3.8-2.9c0.6,0.1,1.2,0.1,1.8-0.1c-1-0.2-1.8-0.7-2.4-1.5
			C1,9.4,0.7,8.6,0.7,7.6c0.6,0.3,1.2,0.5,1.8,0.5C1.7,7.4,1.1,6.6,0.9,5.6c-0.2-1-0.1-2,0.4-3c2.2,2.6,5,4,8.5,4.3
			c0-0.3-0.1-0.5-0.1-0.7c-0.1-0.9,0.2-1.8,0.7-2.5c1-1.4,2.3-2,3.9-1.8C15.2,2,16,2.4,16.7,3c0.1,0.1,0.2,0.1,0.3,0.1
			c0.8-0.2,1.5-0.4,2.2-0.8c0.1,0,0.1-0.1,0.2-0.1c-0.1,0.5-0.4,0.9-0.7,1.3c-0.3,0.4-0.6,0.7-1,1c0.8-0.1,1.5-0.3,2.2-0.6
			c0,0,0,0,0,0.1c-0.3,0.4-0.7,0.8-1,1.2c-0.3,0.3-0.6,0.5-0.9,0.8C18,5.9,17.9,6,17.9,6c0.1,2.1-0.4,4.1-1.4,5.9
			c-1.3,2.4-3.1,4.2-5.6,5.2c-1.7,0.7-3.4,1-5.2,0.9c-1.5-0.1-3-0.4-4.3-1C0.9,16.9,0.5,16.6,0,16.3C0,16.3,0,16.3,0,16.3z"/>
	</g>
</g>
</svg>
